<?xml version="1.0" encoding="UTF-8"?>
<svg width="60" height="60" viewBox="0 0 60 60" xmlns="http://www.w3.org/2000/svg">
  <!-- Background circle -->
  <circle cx="30" cy="30" r="28" fill="#2563eb" stroke="#1e40af" stroke-width="2"/>
  
  <!-- Main envelope -->
  <path d="M15 20 L30 30 L45 20 L45 40 L15 40 Z" fill="#ffffff" stroke="#e5e7eb" stroke-width="1"/>
  
  <!-- Envelope flap -->
  <path d="M15 20 L30 30 L45 20" fill="#f3f4f6" stroke="#d1d5db" stroke-width="1"/>
  
  <!-- Enhancement stars -->
  <g fill="#14b8a6">
    <!-- Top right star -->
    <path d="M42 12 L43.5 15 L47 15 L44.5 17 L45.5 20.5 L42 18.5 L38.5 20.5 L39.5 17 L37 15 L40.5 15 Z" transform="scale(0.8)"/>
    
    <!-- Bottom left star -->
    <path d="M18 45 L19.5 48 L23 48 L20.5 50 L21.5 53.5 L18 51.5 L14.5 53.5 L15.5 50 L13 48 L16.5 48 Z" transform="scale(0.6)"/>
  </g>
  
  <!-- Plus sign for enhancement -->
  <g fill="#14b8a6">
    <rect x="35" y="32" width="8" height="2" rx="1"/>
    <rect x="38" y="29" width="2" height="8" rx="1"/>
  </g>
  
  <!-- Mail lines inside envelope -->
  <g stroke="#9ca3af" stroke-width="1" fill="none">
    <line x1="20" y1="25" x2="40" y2="25"/>
    <line x1="20" y1="30" x2="35" y2="30"/>
    <line x1="20" y1="35" x2="38" y2="35"/>
  </g>
</svg>
