<?xml version="1.0" encoding="UTF-8"?>
<svg width="60" height="60" viewBox="0 0 60 60" xmlns="http://www.w3.org/2000/svg">
  <defs>
    <!-- Gradient definitions -->
    <linearGradient id="bgGradient" x1="0%" y1="0%" x2="100%" y2="100%">
      <stop offset="0%" style="stop-color:#6366f1;stop-opacity:1" />
      <stop offset="100%" style="stop-color:#4f46e5;stop-opacity:1" />
    </linearGradient>
    <linearGradient id="envelopeGradient" x1="0%" y1="0%" x2="100%" y2="100%">
      <stop offset="0%" style="stop-color:#ffffff;stop-opacity:1" />
      <stop offset="100%" style="stop-color:#f1f5f9;stop-opacity:1" />
    </linearGradient>
  </defs>

  <!-- Background circle -->
  <circle cx="30" cy="30" r="28" fill="url(#bgGradient)" stroke="#4f46e5" stroke-width="1"/>

  <!-- Main envelope -->
  <path d="M18 24 L30 34 L42 24 L42 38 L18 38 Z" fill="url(#envelopeGradient)" stroke="#e2e8f0" stroke-width="1"/>

  <!-- Envelope flap -->
  <path d="M18 24 L30 34 L42 24" fill="#f8fafc" stroke="#cbd5e1" stroke-width="1"/>

  <!-- Mail content representation -->
  <rect x="22" y="28" width="16" height="8" rx="2" fill="#e2e8f0" opacity="0.6"/>

  <!-- Text lines -->
  <g stroke="#94a3b8" stroke-width="1.2" fill="none" opacity="0.7">
    <line x1="24" y1="30" x2="36" y2="30"/>
    <line x1="24" y1="32" x2="34" y2="32"/>
    <line x1="24" y1="34" x2="35" y2="34"/>
  </g>

  <!-- Enhancement stars -->
  <g fill="#fbbf24" transform="translate(45, 15)">
    <path d="M0,-3 L0.9,-0.9 L3,0 L0.9,0.9 L0,3 L-0.9,0.9 L-3,0 L-0.9,-0.9 Z"/>
  </g>

  <g fill="#fbbf24" transform="translate(15, 15)">
    <path d="M0,-2 L0.6,-0.6 L2,0 L0.6,0.6 L0,2 L-0.6,0.6 L-2,0 L-0.6,-0.6 Z"/>
  </g>

  <!-- Small notification indicator -->
  <circle cx="46" cy="14" r="2.5" fill="#ef4444" stroke="#ffffff" stroke-width="1"/>
</svg>
